<svg width="2934" height="551" viewBox="0 0 2934 551" fill="none" xmlns="http://www.w3.org/2000/svg">
<g filter="url(#filter0_d_103_20)">
<rect x="267.883" y="287.882" width="238.117" height="238.117" rx="25" fill="url(#paint0_linear_103_20)"/>
<path d="M267.883 45.0005C267.883 31.1933 279.076 20.0005 292.883 20.0005L481 20.0005C494.807 20.0005 505.836 31.1799 504.305 44.9019C500.45 79.4565 487.823 142.353 446.471 183.706C404.984 225.193 334.584 244.995 295.721 253.188C281.007 256.289 267.883 244.835 267.883 229.798L267.883 45.0005Z" fill="url(#paint1_linear_103_20)"/>
<path d="M238.117 233.116C238.117 246.923 226.924 258.116 213.117 258.116L24.9999 258.116C11.1928 258.116 0.163603 246.937 1.69463 233.215C5.55007 198.66 18.1767 135.763 59.5292 94.4108C101.016 52.9238 171.416 33.1216 210.279 24.9291C224.993 21.8273 238.117 33.2813 238.117 48.3188L238.117 233.116Z" fill="url(#paint2_linear_103_20)"/>
<path d="M213.117 287.882C226.924 287.882 238.117 299.075 238.117 312.882L238.117 500.999C238.117 514.806 226.938 525.836 213.216 524.305C178.661 520.449 115.764 507.823 74.4115 466.47C32.9245 424.983 13.1223 354.583 4.92984 315.72C1.82807 301.006 13.2821 287.882 28.3195 287.882L213.117 287.882Z" fill="url(#paint3_linear_103_20)"/>
<path d="M801.36 271.2C783.867 271.2 767.76 268.32 753.04 262.56C738.32 256.8 725.52 248.8 714.64 238.56C703.76 228.107 695.333 215.947 689.36 202.08C683.387 188 680.4 172.64 680.4 156C680.4 139.36 683.387 124.107 689.36 110.24C695.333 96.16 703.76 84 714.64 73.76C725.52 63.3067 738.32 55.2 753.04 49.44C767.76 43.68 783.76 40.8 801.04 40.8C818.533 40.8 834.533 43.68 849.04 49.44C863.76 55.2 876.56 63.3067 887.44 73.76C898.32 84 906.747 96.16 912.72 110.24C918.693 124.107 921.68 139.36 921.68 156C921.68 172.64 918.693 188 912.72 202.08C906.747 216.16 898.32 228.32 887.44 238.56C876.56 248.8 863.76 256.8 849.04 262.56C834.533 268.32 818.64 271.2 801.36 271.2ZM801.04 234.72C812.347 234.72 822.8 232.8 832.4 228.96C842 225.12 850.32 219.68 857.36 212.64C864.4 205.387 869.84 197.067 873.68 187.68C877.733 178.08 879.76 167.52 879.76 156C879.76 144.48 877.733 134.027 873.68 124.64C869.84 115.04 864.4 106.72 857.36 99.68C850.32 92.4267 842 86.88 832.4 83.04C822.8 79.2 812.347 77.28 801.04 77.28C789.733 77.28 779.28 79.2 769.68 83.04C760.293 86.88 751.973 92.4267 744.72 99.68C737.68 106.72 732.133 115.04 728.08 124.64C724.24 134.027 722.32 144.48 722.32 156C722.32 167.307 724.24 177.76 728.08 187.36C732.133 196.96 737.68 205.387 744.72 212.64C751.76 219.68 760.08 225.12 769.68 228.96C779.28 232.8 789.733 234.72 801.04 234.72ZM1115.83 268L1039.99 158.88L1073.59 138.08L1162.87 268H1115.83ZM967.673 268V44H1008.63V268H967.673ZM996.153 173.6V137.76H1071.67V173.6H996.153ZM1077.43 160.8L1039.35 155.68L1115.83 44H1159.99L1077.43 160.8ZM1348.55 44H1390.15V268H1348.55V44ZM1232.71 268H1191.11V44H1232.71V268ZM1351.75 172H1229.19V136.48H1351.75V172ZM1424.51 268L1525.31 44H1566.27L1667.39 268H1623.87L1537.15 66.08H1553.79L1467.39 268H1424.51ZM1470.91 216.16L1482.11 183.52H1603.07L1614.27 216.16H1470.91ZM1790.49 268V44H1890.65C1915.83 44 1935.45 49.0133 1949.53 59.04C1963.61 68.8533 1970.65 83.04 1970.65 101.6C1970.65 119.947 1963.93 134.133 1950.49 144.16C1937.05 153.973 1919.35 158.88 1897.37 158.88L1903.13 147.36C1928.09 147.36 1947.4 152.373 1961.05 162.4C1974.71 172.427 1981.53 186.933 1981.53 205.92C1981.53 225.333 1974.39 240.587 1960.09 251.68C1945.8 262.56 1924.68 268 1896.73 268H1790.49ZM1831.45 236H1895.45C1909.96 236 1920.95 233.333 1928.41 228C1935.88 222.453 1939.61 214.027 1939.61 202.72C1939.61 191.413 1935.88 183.2 1928.41 178.08C1920.95 172.747 1909.96 170.08 1895.45 170.08H1831.45V236ZM1831.45 139.68H1887.13C1900.57 139.68 1910.81 137.013 1917.85 131.68C1924.89 126.133 1928.41 118.24 1928.41 108C1928.41 97.3333 1924.89 89.3333 1917.85 84C1910.81 78.6667 1900.57 76 1887.13 76H1831.45V139.68ZM2266.16 248.8V79.2H2178.48L2176.88 118.88C2176.24 133.813 2175.28 148 2174 161.44C2172.93 174.667 2171.12 186.72 2168.56 197.6C2166.21 208.48 2162.91 217.547 2158.64 224.8C2154.37 232.053 2149.15 236.853 2142.96 239.2L2098.16 232.8C2106.27 233.227 2112.88 230.453 2118 224.48C2123.33 218.507 2127.49 210.187 2130.48 199.52C2133.47 188.853 2135.71 176.373 2137.2 162.08C2138.69 147.573 2139.76 131.893 2140.4 115.04L2142.96 44H2307.12V248.8H2266.16ZM2090.48 315.68L2090.8 232.8H2339.44V315.68H2301.04V268H2129.2V315.68H2090.48ZM2482.61 271.2C2465.12 271.2 2449.01 268.32 2434.29 262.56C2419.57 256.8 2406.77 248.8 2395.89 238.56C2385.01 228.107 2376.58 215.947 2370.61 202.08C2364.64 188 2361.65 172.64 2361.65 156C2361.65 139.36 2364.64 124.107 2370.61 110.24C2376.58 96.16 2385.01 84 2395.89 73.76C2406.77 63.3067 2419.57 55.2 2434.29 49.44C2449.01 43.68 2465.01 40.8 2482.29 40.8C2499.78 40.8 2515.78 43.68 2530.29 49.44C2545.01 55.2 2557.81 63.3067 2568.69 73.76C2579.57 84 2588 96.16 2593.97 110.24C2599.94 124.107 2602.93 139.36 2602.93 156C2602.93 172.64 2599.94 188 2593.97 202.08C2588 216.16 2579.57 228.32 2568.69 238.56C2557.81 248.8 2545.01 256.8 2530.29 262.56C2515.78 268.32 2499.89 271.2 2482.61 271.2ZM2482.29 234.72C2493.6 234.72 2504.05 232.8 2513.65 228.96C2523.25 225.12 2531.57 219.68 2538.61 212.64C2545.65 205.387 2551.09 197.067 2554.93 187.68C2558.98 178.08 2561.01 167.52 2561.01 156C2561.01 144.48 2558.98 134.027 2554.93 124.64C2551.09 115.04 2545.65 106.72 2538.61 99.68C2531.57 92.4267 2523.25 86.88 2513.65 83.04C2504.05 79.2 2493.6 77.28 2482.29 77.28C2470.98 77.28 2460.53 79.2 2450.93 83.04C2441.54 86.88 2433.22 92.4267 2425.97 99.68C2418.93 106.72 2413.38 115.04 2409.33 124.64C2405.49 134.027 2403.57 144.48 2403.57 156C2403.57 167.307 2405.49 177.76 2409.33 187.36C2413.38 196.96 2418.93 205.387 2425.97 212.64C2433.01 219.68 2441.33 225.12 2450.93 228.96C2460.53 232.8 2470.98 234.72 2482.29 234.72ZM2649.24 268V44H2683.16L2781.4 207.52H2763.16L2859.8 44H2893.72L2894.36 268H2854.68L2854.36 105.76H2862.68L2780.76 242.4H2762.2L2679 105.76H2688.6V268H2649.24ZM693.25 508V333H768.5C787.5 333 802.417 336.833 813.25 344.5C824.083 352.167 829.5 363.333 829.5 378C829.5 392.333 824.333 403.333 814 411C803.667 418.5 790.083 422.25 773.25 422.25L777.75 414.75C797.25 414.75 812.167 418.667 822.5 426.5C833 434.167 838.25 445.417 838.25 460.25C838.25 475.25 832.75 487 821.75 495.5C810.917 503.833 794.75 508 773.25 508H693.25ZM718 488.25H772.75C786.083 488.25 796.083 485.833 802.75 481C809.583 476 813 468.417 813 458.25C813 448.083 809.583 440.667 802.75 436C796.083 431.333 786.083 429 772.75 429H718V488.25ZM718 410H766.75C778.917 410 788.167 407.583 794.5 402.75C801 397.917 804.25 390.833 804.25 381.5C804.25 372 801 364.833 794.5 360C788.167 355.167 778.917 352.75 766.75 352.75H718V410ZM855.768 508L935.018 333H959.768L1039.27 508H1013.02L942.268 347H952.268L881.518 508H855.768ZM889.518 464.25L896.268 444.25H994.768L1002.02 464.25H889.518ZM1172.72 486.25L1166.97 492.75V333H1191.47V492.75L1185.22 486.25H1270.47L1264.22 492.75V333H1288.72V508H1069.47V333H1094.22V492.75L1087.97 486.25H1172.72ZM1343.15 508V333H1367.9V468L1471.4 333H1494.4V508H1469.9V373.25L1366.15 508H1343.15ZM1694.85 510C1681.52 510 1669.1 507.75 1657.6 503.25C1646.27 498.75 1636.43 492.5 1628.1 484.5C1619.77 476.333 1613.27 466.833 1608.6 456C1603.93 445.167 1601.6 433.333 1601.6 420.5C1601.6 407.667 1603.93 395.833 1608.6 385C1613.27 374.167 1619.77 364.75 1628.1 356.75C1636.43 348.583 1646.27 342.25 1657.6 337.75C1668.93 333.25 1681.35 331 1694.85 331C1708.18 331 1720.43 333.25 1731.6 337.75C1742.93 342.083 1752.77 348.333 1761.1 356.5C1769.6 364.5 1776.1 373.917 1780.6 384.75C1785.27 395.583 1787.6 407.5 1787.6 420.5C1787.6 433.5 1785.27 445.417 1780.6 456.25C1776.1 467.083 1769.6 476.583 1761.1 484.75C1752.77 492.75 1742.93 499 1731.6 503.5C1720.43 507.833 1708.18 510 1694.85 510ZM1694.85 487.75C1704.52 487.75 1713.43 486.083 1721.6 482.75C1729.93 479.417 1737.1 474.75 1743.1 468.75C1749.27 462.583 1754.02 455.417 1757.35 447.25C1760.85 439.083 1762.6 430.167 1762.6 420.5C1762.6 410.833 1760.85 401.917 1757.35 393.75C1754.02 385.583 1749.27 378.5 1743.1 372.5C1737.1 366.333 1729.93 361.583 1721.6 358.25C1713.43 354.917 1704.52 353.25 1694.85 353.25C1685.02 353.25 1675.93 354.917 1667.6 358.25C1659.43 361.583 1652.27 366.333 1646.1 372.5C1639.93 378.5 1635.1 385.583 1631.6 393.75C1628.27 401.917 1626.6 410.833 1626.6 420.5C1626.6 430.167 1628.27 439.083 1631.6 447.25C1635.1 455.417 1639.93 462.583 1646.1 468.75C1652.27 474.75 1659.43 479.417 1667.6 482.75C1675.93 486.083 1685.02 487.75 1694.85 487.75ZM1945.77 508L1882.27 421.75L1902.52 409.25L1974.27 508H1945.77ZM1828.02 508V333H1852.52V508H1828.02ZM1845.02 431V409H1901.77V431H1845.02ZM1904.77 423.25L1881.77 419.75L1944.52 333H1971.27L1904.77 423.25ZM2125.39 333H2150.39V508H2125.39V333ZM2024.89 508H1999.89V333H2024.89V508ZM2127.64 430H2022.39V408.25H2127.64V430ZM2180.72 508L2259.97 333H2284.72L2364.22 508H2337.97L2267.22 347H2277.22L2206.47 508H2180.72ZM2214.47 464.25L2221.22 444.25H2319.72L2326.97 464.25H2214.47ZM2497.31 508V348.25L2503.56 354.75H2437.56V333H2581.81V354.75H2515.81L2521.81 348.25V508H2497.31ZM2604.13 486C2612.79 489.167 2620.79 490 2628.13 488.5C2635.46 486.833 2642.04 481.25 2647.88 471.75L2656.38 458.25L2658.88 455.5L2723.13 333H2747.88L2670.13 477C2664.29 488 2657.46 496.333 2649.63 502C2641.96 507.5 2633.63 510.5 2624.63 511C2615.79 511.667 2606.79 510 2597.63 506L2604.13 486ZM2658.13 477.75L2581.38 333H2608.13L2671.88 457.75L2658.13 477.75ZM2811.28 508V348.25L2817.53 354.75H2751.53V333H2895.78V354.75H2829.78L2835.78 348.25V508H2811.28Z" fill="black"/>
</g>
<defs>
<filter id="filter0_d_103_20" x="1.55225" y="20.0005" width="2902.22" height="513.999" filterUnits="userSpaceOnUse" color-interpolation-filters="sRGB">
<feFlood flood-opacity="0" result="BackgroundImageFix"/>
<feColorMatrix in="SourceAlpha" type="matrix" values="0 0 0 0 0 0 0 0 0 0 0 0 0 0 0 0 0 0 127 0" result="hardAlpha"/>
<feOffset dx="4" dy="4"/>
<feGaussianBlur stdDeviation="2"/>
<feComposite in2="hardAlpha" operator="out"/>
<feColorMatrix type="matrix" values="0 0 0 0 0 0 0 0 0 0 0 0 0 0 0 0 0 0 0.35 0"/>
<feBlend mode="normal" in2="BackgroundImageFix" result="effect1_dropShadow_103_20"/>
<feBlend mode="normal" in="SourceGraphic" in2="effect1_dropShadow_103_20" result="shape"/>
</filter>
<linearGradient id="paint0_linear_103_20" x1="268" y1="287.999" x2="506" y2="525.999" gradientUnits="userSpaceOnUse">
<stop stop-color="#7D6DFF"/>
<stop offset="1" stop-color="#3A3471"/>
</linearGradient>
<linearGradient id="paint1_linear_103_20" x1="268" y1="19.9998" x2="506" y2="258" gradientUnits="userSpaceOnUse">
<stop stop-color="#FF6A6A"/>
<stop offset="1" stop-color="#873737"/>
</linearGradient>
<linearGradient id="paint2_linear_103_20" x1="238" y1="257.999" x2="7.66529e-06" y2="19.9993" gradientUnits="userSpaceOnUse">
<stop stop-color="#234975"/>
<stop offset="1" stop-color="#52A1FF"/>
</linearGradient>
<linearGradient id="paint3_linear_103_20" x1="1.21879e-07" y1="287.999" x2="238" y2="525.999" gradientUnits="userSpaceOnUse">
<stop stop-color="#7BFF4D"/>
<stop offset="1" stop-color="#438E29"/>
</linearGradient>
</defs>
</svg>
