<svg width="32" height="33" viewBox="0 0 32 33" fill="none" xmlns="http://www.w3.org/2000/svg">
<path d="M17.5 9.5C19.5 9.5 20.5 10.5 20.5 12.5" stroke="white" stroke-linecap="round"/>
<path d="M16 7C20.6667 7 23 9.33333 23 14" stroke="white" stroke-linecap="round"/>
<path d="M15 5C21.6667 5 25 8.33333 25 15" stroke="white" stroke-linecap="round"/>
<path d="M1 10.7059C1 4.35294 5.41176 1 11.1471 1H21.2941C29.0588 1 31 5.41176 31 10.7059V17.7647C31 24.8235 26.5882 27.4706 21.7353 27.4706H14.2353L8.5 31V26.5882C4.08824 26.5882 1 22.1765 1 17.7647V10.7059Z" stroke="white" stroke-width="2"/>
<path d="M17.5 22C13 19 12.4998 18.5 9.00023 14C7.44499 12 6.99977 10.5 7 9C7.00023 7.5 9.5 6 10 6C10.5 6 13.5 10 13.5 10.5C13.5 11 13 11 12 12C11.5 12 11.5 13 12 14C12.5 15 16.5 18.5 18 18.5C19.5 18 19 17.5 20 17C21.5 16.5 22.5 18.5 24 19.5C25 21 23.5 22 23 22.5C21 23.3 18.9629 22.931 17.5 22Z" fill="white" stroke="white" stroke-width="2"/>
</svg>
