<svg width="30" height="30" viewBox="0 0 30 30" fill="none" xmlns="http://www.w3.org/2000/svg">
<path d="M16.0849 22.1686C12.1914 19.512 11.7586 19.0692 8.73066 15.0843C7.38502 13.3132 6.9998 11.9849 7 10.6566C7.0002 9.3283 9.16308 8 9.5957 8C10.0283 8 12.624 11.5421 12.624 11.9849C12.624 12.4277 12.1914 12.4277 11.3262 13.3132C10.8935 13.3132 10.8935 14.1988 11.3262 15.0843C11.7588 15.9698 15.2197 19.0692 16.5176 19.0692C17.8154 18.6264 17.3828 18.1837 18.248 17.7409C19.5459 17.2981 20.4111 19.0692 21.7089 19.9547C22.5742 21.283 21.2763 22.1686 20.8437 22.6113C19.1133 23.3198 17.3507 22.993 16.0849 22.1686Z" fill="white" stroke="white" stroke-width="2"/>
<path d="M1.01174 29H0.999922C0.99989 28.5856 0.999848 28.0611 0.999799 27.4574C0.999518 23.9592 0.999023 17.8021 0.999023 15C0.999023 7.26801 7.26704 1 14.999 1C22.731 1 28.999 7.26801 28.999 15C28.999 22.732 22.731 29 14.999 29H14.9735H14.9478H14.922H14.896H14.8699H14.8437H14.8173H14.7907H14.7641H14.7373H14.7103H14.6833H14.6561H14.6287H14.6012H14.5736H14.5459H14.518H14.49H14.4619H14.4336H14.4052H14.3767H14.348H14.3193H14.2903H14.2613H14.2322H14.2029H14.1735H14.144H14.1144H14.0846H14.0547H14.0247H13.9946H13.9644H13.934H13.9036H13.873H13.8423H13.8115H13.7806H13.7496H13.7184H13.6872H13.6558H13.6244H13.5928H13.5611H13.5293H13.4974H13.4654H13.4333H13.4011H13.3688H13.3364H13.3039H13.2713H13.2386H13.2057H13.1728H13.1398H13.1067H13.0735H13.0402H13.0068H12.9734H12.9398H12.9061H12.8724H12.8385H12.8046H12.7705H12.7364H12.7022H12.6679H12.6336H12.5991H12.5646H12.5299H12.4952H12.4604H12.4255H12.3906H12.3556H12.3204H12.2852H12.25H12.2146H12.1792H12.1437H12.1081H12.0725H12.0368H12.001H11.9651H11.9292H11.8932H11.8571H11.8209H11.7847H11.7484H11.7121H11.6757H11.6392H11.6027H11.5661H11.5294H11.4927H11.4559H11.419H11.3821H11.3452H11.3081H11.2711H11.2339H11.1967H11.1595H11.1222H11.0848H11.0474H11.01H10.9724H10.9349H10.8973H10.8596H10.8219H10.7842H10.7464H10.7085H10.6706H10.6327H10.5947H10.5567H10.5186H10.4805H10.4424H10.4042H10.3659H10.3277H10.2894H10.251H10.2127H10.1743H10.1358H10.0973H10.0588H10.0203H9.98171H9.94311H9.90447H9.86581H9.82712H9.7884H9.74965H9.71088H9.67208H9.63326H9.59442H9.55555H9.51666H9.47774H9.43881H9.39986H9.36088H9.32189H9.28288H9.24386H9.20482H9.16576H9.12669H9.0876H9.0485H9.00939H8.97027H8.93113H8.89199H8.85283H8.81367H8.7745H8.73532H8.69614H8.65695H8.61776H8.57856H8.53936H8.50015H8.46095H8.42174H8.38253H8.34332H8.30412H8.26491H8.22571H8.18651H8.14732H8.10813H8.06895H8.02977H7.99061H7.95144H7.91229H7.87315H7.83402H7.7949H7.75579H7.71669H7.67761H7.63854H7.59948H7.56045H7.52142H7.48242H7.44343H7.40446H7.36551H7.32658H7.28768H7.24879H7.20993H7.17108H7.13227H7.09348H7.05471H7.01597H6.97725H6.93857H6.89991H6.86128H6.82269H6.78412H6.74558H6.70708H6.66861H6.63017H6.59177H6.55341H6.51507H6.47678H6.43853H6.40031H6.36213H6.32399H6.28589H6.24784H6.20982H6.17185H6.13392H6.09604H6.0582H6.02041H5.98266H5.94497H5.90732H5.86971H5.83216H5.79466H5.75721H5.71982H5.68247H5.64518H5.60794H5.57076H5.53364H5.49657H5.45955H5.4226H5.38571H5.34887H5.31209H5.27538H5.23873H5.20214H5.16561H5.12915H5.09275H5.05642H5.02016H4.98396H4.94783H4.91177H4.87578H4.83985H4.804H4.76822H4.73252H4.69689H4.66133H4.62584H4.59043H4.5551H4.51984H4.48467H4.44957H4.41455H4.37961H4.34475H4.30997H4.27528H4.24066H4.20613H4.17169H4.13733H4.10306H4.06888H4.03478H4.00077H3.96685H3.93302H3.89928H3.86563H3.83208H3.79861H3.76524H3.73197H3.69879H3.66571H3.63272H3.59983H3.56704H3.53435H3.50175H3.46926H3.43687H3.40458H3.3724H3.34032H3.30834H3.27647H3.2447H3.21304H3.18149H3.15004H3.11871H3.08748H3.05637H3.02536H2.99447H2.96369H2.93302H2.90247H2.87203H2.84171H2.8115H2.78142H2.75145H2.7216H2.69186H2.66225H2.63276H2.60339H2.57415H2.54502H2.51602H2.48715H2.4584H2.42978H2.40128H2.37292H2.34468H2.31657H2.28859H2.26074H2.23302H2.20544H2.17799H2.15067H2.12349H2.09644H2.06953H2.04275H2.01612H1.98962H1.96326H1.93704H1.91096H1.88502H1.85923H1.83358H1.80807H1.78271H1.75749H1.73242H1.70749H1.68271H1.65808H1.6336H1.60927H1.58509H1.56106H1.53719H1.51346H1.48989H1.46648H1.44322H1.42011H1.39716H1.37437H1.35174H1.32927H1.30695H1.2848H1.2628H1.24097H1.21931H1.1978H1.17646H1.15529H1.13428H1.11343H1.09276H1.07225H1.05191H1.03174H1.01174Z" stroke="white" stroke-width="2"/>
</svg>
